<?xml version="1.0" encoding="utf-8"?>
<!-- Svg Vector Icons : http://www.onlinewebfonts.com/icon -->
<!DOCTYPE svg PUBLIC "-//W3C//DTD SVG 1.1//EN" "http://www.w3.org/Graphics/SVG/1.1/DTD/svg11.dtd">
<svg version="1.1" xmlns="http://www.w3.org/2000/svg" xmlns:xlink="http://www.w3.org/1999/xlink" x="0px" y="0px" viewBox="0 0 1000 1000" enable-background="new 0 0 1000 1000" xml:space="preserve">
<metadata> Svg Vector Icons : http://www.onlinewebfonts.com/icon </metadata>
<g><g transform="translate(0.000000,358.000000) scale(0.100000,-0.100000)"><path d="M1082.2,1981.1c-181.9-55.5-329.3-185.7-428.9-373.3l-45.9-86.2l-9.6-2689.9l-9.6-2689.9l-155.1-9.6c-170.4-11.5-235.5-40.2-294.8-139.8c-32.5-53.6-38.3-97.6-38.3-348.4c0-273.8,1.9-291,45.9-356.1c97.6-143.6-356.1-132.1,4855.3-132.1c5180.7,0,4753.8-11.5,4849.5,122.5c38.3,53.6,42.1,84.3,47.9,356.1c3.8,269.9,1.9,302.5-34.5,359.9c-63.2,103.4-141.7,137.9-310.2,137.9h-149.3v2676.5v2674.6l-55.5,118.7c-70.8,149.3-189.5,270-338.9,342.7l-113,55.5l-3867.4,3.8C1855.6,2006,1147.3,2002.1,1082.2,1981.1z M8937.5,1634.6c28.7-21.1,70.9-63.2,91.9-91.9c40.2-51.7,40.2-59.4,45.9-2732.1l3.8-2678.4H7497.8c-1047.3,0-1592.9-5.7-1617.8-19.2c-19.1-11.5-49.8-46-65.1-76.6l-30.6-57.4h-706.5c-693.1,0-706.5,0-717.9,38.3c-7.7,23-30.6,57.4-53.6,76.6c-38.3,38.3-76.6,38.3-1711.6,38.3H923.3v2661.2c0,2881.4-5.7,2711,101.5,2810.5c24.9,24.9,70.8,51.7,101.5,61.3c30.6,9.6,1776.7,15.3,3907.6,13.4l3852.1-3.8L8937.5,1634.6z M4151.2-4233.5c19.1-23,70.8-59.3,113-82.3c74.7-38.3,95.7-40.2,823.2-40.2H5834l88.1,51.7c47.9,28.7,97.7,65.1,113,80.4c21.1,26.8,214.4,30.6,1782.4,30.6H9577V-4356v-162.7H5001.2H425.5v162.7v162.7h1843.7h1845.6L4151.2-4233.5z"/><path d="M1156.8,1498.6c-13.4-5.7-36.4-34.5-51.7-63.2c-24.9-47.9-28.7-382.9-28.7-2527.2c0-2632.5-1.9-2557.8,86.2-2592.3c42.1-15.3,7635.2-15.3,7677.3,0c88,34.5,86.2-40.2,86.2,2592.3c0,2632.5,1.9,2557.8-86.2,2592.3C8801.6,1513.9,1193.2,1513.9,1156.8,1498.6z M8600.6-1091.8V-3370H5001.2H1401.9v2278.3v2278.3h3599.3h3599.3V-1091.8z"/><path d="M2269.2,338.4c-359.9-358-369.5-369.5-369.5-446.1c0-103.4,67-168.5,166.6-166.6c65.1,1.9,99.6,30.6,440.3,373.3c348.4,350.4,369.5,375.2,369.5,442.3c0,95.7-72.7,166.6-168.5,166.6C2644.4,707.9,2610,679.2,2269.2,338.4z"/><path d="M3169,415c-266.1-266.1-292.9-298.7-292.9-358c1.9-74.7,26.8-116.8,90-149.3c99.6-53.6,132.1-34.5,411.6,241.2c346.5,338.9,375.2,394.4,266.1,503.5c-40.2,38.3-74.7,55.5-118.7,55.5C3469.6,707.9,3427.5,673.5,3169,415z"/><path d="M4156.9,579.6c-118.7-114.9-132.1-134-132.1-201c0-95.7,67-168.5,155.1-168.5c47.9,0,86.2,24.9,195.3,132.1C4495.8,459,4511.1,482,4511.1,545.2c0,55.5-13.4,82.3-53.6,116.8C4367.5,740.5,4306.2,725.1,4156.9,579.6z"/><path d="M2678.9-896.5c-742.8-742.9-779.2-783.1-779.2-850.1c0-53.6,13.4-80.4,59.4-118.7c116.8-99.6,91.9-118.7,941.9,731.4c428.9,428.9,785,798.4,790.7,823.3c15.3,53.6-24.9,153.2-70.8,176.1c-19.1,11.5-63.2,19.1-97.6,19.1C3465.8-115.3,3393-180.4,2678.9-896.5z"/><path d="M2106.4-647.6c-189.5-189.5-206.8-212.5-206.8-277.6c0-97.6,67-166.6,164.7-166.6c63.2,0,90,19.2,277.6,206.8c191.5,189.6,208.7,210.6,208.7,277.6c0,99.6-67,166.6-166.6,166.6C2318.9-440.8,2296-458,2106.4-647.6z"/></g></g>
</svg>