<?xml version="1.0" encoding="utf-8"?>
<!-- Svg Vector Icons : http://www.onlinewebfonts.com/icon -->
<!DOCTYPE svg PUBLIC "-//W3C//DTD SVG 1.1//EN" "http://www.w3.org/Graphics/SVG/1.1/DTD/svg11.dtd">
<svg version="1.1" xmlns="http://www.w3.org/2000/svg" xmlns:xlink="http://www.w3.org/1999/xlink" x="0px" y="0px" viewBox="0 0 1000 1000" enable-background="new 0 0 1000 1000" xml:space="preserve">
<metadata> Svg Vector Icons : http://www.onlinewebfonts.com/icon </metadata>
<g><path fill='#FFF' d="M944.1,928.8H55.9c-25.4,0-45.9-20.6-45.9-45.9V117.2c0-25.4,20.6-45.9,45.9-45.9h888.1c25.4,0,45.9,20.6,45.9,45.9v765.6C990,908.2,969.4,928.8,944.1,928.8z M101.9,117.2c-25.4,0-45.9,20.6-45.9,45.9c0,25.4,20.6,45.9,45.9,45.9s45.9-20.6,45.9-45.9C147.8,137.8,127.2,117.2,101.9,117.2z M239.7,117.2c-25.4,0-45.9,20.6-45.9,45.9c0,25.4,20.6,45.9,45.9,45.9c25.4,0,45.9-20.6,45.9-45.9C285.6,137.8,265.1,117.2,239.7,117.2z M377.5,117.2c-25.4,0-45.9,20.6-45.9,45.9c0,25.4,20.6,45.9,45.9,45.9c25.4,0,45.9-20.6,45.9-45.9C423.4,137.8,402.9,117.2,377.5,117.2z M944.1,255h-45.9H101.9H55.9v627.8h888.1V255z M263.1,552.5l90.5-90.5l0,0c4.2-4.3,10-7,16.4-7c12.7,0,23,10.3,23,23c0,6.5-2.7,12.3-7,16.5l0,0L310.5,570l75.7,75.7l0,0c4,4.1,6.5,9.8,6.5,16c0,12.7-10.3,23-23,23c-6.2,0-11.8-2.5-16-6.5l0,0L262,586.3l0,0c-4.3-4.2-7-10-7-16.4C255,562.9,258.2,556.7,263.1,552.5z M539.5,401.4c3.2-8.8,11.7-15.2,21.6-15.2c12.7,0,23,10.3,23,23c0,2.9-0.5,5.7-1.5,8.2L460.3,738.4c-3.2,8.9-11.7,15.2-21.6,15.2c-12.7,0-23-10.3-23-23c0-2.9,0.5-5.7,1.5-8.2L539.5,401.4z M630,455.1c6.5,0,12.3,2.7,16.5,7l0,0l90.5,90.5c4.9,4.2,8.1,10.4,8.1,17.3c0,6.5-2.7,12.3-7,16.4l0,0l-91.8,91.8l0,0c-4.1,4-9.8,6.5-16,6.5c-12.7,0-23-10.3-23-23c0-6.2,2.5-11.8,6.5-16l0,0l75.7-75.7L614,494.5l0,0c-4.3-4.2-7-10-7-16.5C607,465.3,617.3,455.1,630,455.1z"/></g>
</svg>