<?xml version="1.0" encoding="utf-8"?>
<!-- Svg Vector Icons : http://www.onlinewebfonts.com/icon -->
<!DOCTYPE svg PUBLIC "-//W3C//DTD SVG 1.1//EN" "http://www.w3.org/Graphics/SVG/1.1/DTD/svg11.dtd">
<svg version="1.1" xmlns="http://www.w3.org/2000/svg" xmlns:xlink="http://www.w3.org/1999/xlink" x="0px" y="0px" viewBox="0 0 1000 1000" enable-background="new 0 0 1000 1000" xml:space="preserve">
<metadata> Svg Vector Icons : http://www.onlinewebfonts.com/icon </metadata>
<g><g transform="translate(0.000000,511.000000) scale(0.100000,-0.100000)"><path fill='#FFF' d="M4874.8,4998.6c-441-71.2-822.6-276.8-931.4-508.2c-120.6-253.1,17.8-516.1,369.8-698.1c162.1-85,482.5-178,611-178h77.1v-292.7V3031l-352-352l-350-350h-1232h-1230v-632.8v-632.8h-553.7H729.9v-791v-791h1265.6h1265.6v316.4v316.4h870.1h870.1v-553.7v-553.7H3340.2H1679.1v-316.4V-1626h-158.2h-158.2v-207.6c0-114.7-5.9-207.6-13.8-207.6c-7.9,0-79.1,65.3-158.2,142.4l-144.4,144.4l-330.2-332.2L383.9-2417l144.4-144.4c77.1-79.1,142.4-150.3,142.4-158.2c0-7.9-92.9-13.8-207.6-13.8H255.3V-3208v-474.6H463c114.7,0,207.6-5.9,207.6-13.8c0-7.9-65.2-79.1-142.4-158.2L383.9-3999l332.2-330.2l330.2-332.2l144.4,144.4c79.1,77.1,150.3,142.4,158.2,142.4c7.9,0,13.8-93,13.8-207.6V-4790h474.6h474.6v207.6c0,114.7,5.9,207.6,13.8,207.6c7.9,0,77.1-61.3,154.2-138.4l138.4-138.4l332.2,332.2l330.2,330.2l-138.4,138.4c-75.1,75.1-138.4,144.4-138.4,152.3c0,9.9,92.9,15.8,207.6,15.8h207.6v474.6v474.6h-207.6c-114.7,0-207.6,5.9-207.6,13.8c0,7.9,65.3,79.1,142.4,158.2l144.4,144.4l-332.2,330.2l-330.2,332.2L2484-1898.9c-79.1-77.1-150.3-142.4-158.2-142.4c-7.9,0-13.8,92.9-13.8,207.6v207.6h-158.2h-158.2v158.2v158.2h3164h3164v-164.1v-164.1l-112.7-23.7c-336.2-71.2-692.1-354-852.3-678.3c-91-183.9-142.4-381.7-142.4-551.7c0-290.7,146.3-648.6,354-870.1c87-92.9,120.6-142.4,120.6-181.9c0-51.4-5.9-55.4-79.1-55.4h-79.1v-158.2v-158.2h79.1h79.1v-237.3V-4790h791h791v237.3v237.3h79.1h79.1v158.2v158.2h-79.1c-75.1,0-79.1,2-79.1,61.3c0,41.5,15.8,73.2,49.4,100.9c83.1,65.3,225.4,263,296.6,415.3c172,361.9,168.1,715.9-13.8,1081.7c-116.7,237.3-334.2,454.8-571.5,571.5c-92.9,45.5-219.5,94.9-280.8,106.8l-112.7,23.7v322.3v322.3H6978.8H5317.7v553.7v553.7h870.1h870.1v-316.4v-316.4h1265.6h1265.6v791v791h-553.7h-553.7v632.8V2329h-1232h-1230l-352,352l-352,352l5.9,284.7l5.9,286.7l116.7,13.8c569.5,71.2,1026.3,417.2,974.9,737.6c-57.4,352-565.6,632.8-1190.5,652.6C5098.2,5012.4,4938,5008.5,4874.8,4998.6z M5685.5,4638.7c573.5-170,561.6-510.2-23.7-672.3c-132.5-35.6-207.6-43.5-502.3-43.5c-294.6,0-369.8,7.9-502.3,43.5c-563.6,156.2-597.2,498.3-65.3,660.5c207.6,61.3,314.4,73.2,636.7,65.2C5470,4686.2,5555,4676.3,5685.5,4638.7z M5446.2,2447.6l276.9-276.8L5440.3,1888l-280.8-280.8L4878.7,1888l-282.8,282.8l276.9,276.8c152.3,152.3,280.8,276.9,286.7,276.9S5294,2599.9,5446.2,2447.6z M4728.4,1583.5l431.1-431.1l431.1,431.1l429.1,429.1h1073.8h1071.8V1538v-474.6h-553.7h-553.7V747V430.6H5159.5H3261.1V747v316.4h-553.7h-553.7V1538v474.6h1071.8h1073.8L4728.4,1583.5z M2944.7,272.4v-474.6h-949.2h-949.2v474.6V747h949.2h949.2V272.4z M9272.7,272.4v-474.6h-949.2h-949.2v474.6V747h949.2h949.2V272.4z M1999.5-2104.6l5.9-162.1l89-25.7c49.4-13.8,136.4-49.4,193.8-79.1l104.8-53.4l112.7,112.7l112.7,112.7l112.7-112.7l114.7-112.7l-112.7-114.7l-112.7-112.7l53.4-104.8c29.7-57.3,65.3-144.4,79.1-193.8l25.7-89l162.1-5.9l162.2-5.9V-3208v-156.2l-162.2-5.9l-162.1-5.9l-25.7-89c-13.8-49.4-49.4-136.5-79.1-193.8l-53.4-104.8l112.7-112.7l112.7-114.7l-114.7-112.7l-112.7-112.7l-112.7,112.7L2393-3991.1l-104.8-53.4c-57.3-29.7-144.4-65.3-193.8-79.1l-89-25.7l-5.9-162.2l-5.9-162.2h-156.2h-156.2l-5.9,162.2l-5.9,162.2l-89,25.7c-49.4,13.8-136.4,49.4-193.8,79.1l-104.8,53.4l-112.7-112.7l-114.7-112.7l-112.7,114.7l-112.7,112.7l112.7,112.7l112.7,112.7l-53.4,104.8c-29.7,57.3-65.3,144.4-79.1,193.8l-25.7,89l-162.1,5.9l-162.2,5.9v156.2v156.2l162.2,5.9l162.1,5.9l25.7,89c13.8,49.4,49.4,136.4,79.1,193.8l53.4,104.8l-112.7,112.7l-112.7,112.7l112.7,114.7l114.7,112.7l112.7-112.7l112.7-112.7l104.8,53.4c57.3,29.7,144.4,65.3,193.8,79.1l89,25.7l5.9,162.1l5.9,162.2h156.2h156.2L1999.5-2104.6z M8728.9-1972.1c421.2-110.7,702-476.6,702-919.5c0-158.2-41.5-330.2-112.7-458.8c-55.4-102.8-217.5-274.9-306.5-328.3c-53.4-29.6-55.4-39.5-55.4-176V-3999h-158.2h-158.2l2,332.2v330.2l81.1,59.3c183.9,134.5,263,308.5,217.5,480.5c-43.5,162.2-201.7,320.4-363.9,363.9c-225.4,59.3-486.5-114.7-553.7-367.8c-45.5-168.1,33.6-342.1,217.5-476.6l81.1-59.3v-330.2l2-332.2h-158.2h-158.2v136.5v136.4l-102.8,83.1c-225.4,176-348,405.4-365.8,682.2c-31.6,472.6,245.2,868.1,692.1,988.7C8369-1936.5,8584.5-1936.5,8728.9-1972.1z M8600.4-2772.9c25.7-25.7,39.5-65.3,39.5-118.7c0-104.8-53.4-158.2-158.2-158.2s-158.2,53.4-158.2,158.2c0,104.8,53.4,158.2,158.2,158.2C8535.1-2733.4,8574.6-2747.2,8600.4-2772.9z M8956.3-4394.5v-79.1h-474.6h-474.6v79.1v79.1h474.6h474.6V-4394.5z"/><path fill='#FFF' d="M1675.2-2600.9c-197.7-75.2-310.5-174-407.4-357.9c-43.5-83-53.4-126.5-53.4-249.2c0-132.5,7.9-162.2,67.2-272.9c77.1-140.4,156.2-217.5,304.5-294.6c146.3-77.1,354-77.1,502.3,0c148.3,77.1,227.4,154.2,304.5,294.6c57.3,108.8,65.2,142.4,65.2,272.9c2,124.6-7.9,166.1-53.4,251.1c-77.1,148.3-154.2,227.4-292.7,302.5C1969.8-2579.2,1793.8-2557.4,1675.2-2600.9z M2031.1-2943c87-65.3,126.6-160.2,116.7-290.7c-11.9-197.8-130.5-298.6-336.2-284.8c-197.7,11.9-298.6,130.5-284.8,336.2c7.9,130.5,51.4,203.7,154.3,257.1C1770.1-2877.8,1954-2887.7,2031.1-2943z"/></g></g>
</svg>