<?xml version="1.0" encoding="utf-8"?>
<!-- Svg Vector Icons : http://www.onlinewebfonts.com/icon -->
<!DOCTYPE svg PUBLIC "-//W3C//DTD SVG 1.1//EN" "http://www.w3.org/Graphics/SVG/1.1/DTD/svg11.dtd">
<svg version="1.1" xmlns="http://www.w3.org/2000/svg" xmlns:xlink="http://www.w3.org/1999/xlink" x="0px" y="0px" viewBox="0 0 1000 1000" enable-background="new 0 0 1000 1000" xml:space="preserve">
<metadata> Svg Vector Icons : http://www.onlinewebfonts.com/icon </metadata>
<g><path fill='#5195CE' d="M499.9,990c-66.1,0-130.3-13-190.7-38.5c-58.3-24.7-110.7-60-155.7-105c-45-45-80.3-97.4-105-155.7C23,630.4,10,566.2,10,500.1c0-66.1,13-130.3,38.5-190.7c24.7-58.3,60-110.7,105-155.7c45-45,97.4-80.3,155.7-105c60.4-25.6,124.6-38.5,190.7-38.5L990,10l-0.2,490.1c0,66.1-13,130.3-38.5,190.7c-24.7,58.3-60,110.7-105,155.7c-45,45-97.4,80.3-155.7,105C630.2,977,566,990,499.9,990z"/></g>
</svg>