<?xml version="1.0" encoding="utf-8"?>
<!-- Svg Vector Icons : http://www.onlinewebfonts.com/icon -->
<!DOCTYPE svg PUBLIC "-//W3C//DTD SVG 1.1//EN" "http://www.w3.org/Graphics/SVG/1.1/DTD/svg11.dtd">
<svg version="1.1" xmlns="http://www.w3.org/2000/svg" xmlns:xlink="http://www.w3.org/1999/xlink" x="0px" y="0px" viewBox="0 0 1000 1000" enable-background="new 0 0 1000 1000" xml:space="preserve">
<metadata> Svg Vector Icons : http://www.onlinewebfonts.com/icon </metadata>
<g><path d="M498,12C229.6,12,10,231.6,10,500s219.6,488,488,488c44.7,0,81.3-36.6,81.3-81.3c0-20.3-8.1-40.7-20.3-52.9c-12.2-16.3-20.3-32.5-20.3-52.9c0-44.7,36.6-81.3,81.3-81.3h97.6c150.5,0,272.4-122,272.4-272.4C985.9,207.2,766.3,12,498,12z M201.1,500c-44.7,0-81.3-36.6-81.3-81.3c0-44.7,36.6-81.3,81.3-81.3c44.7,0,81.3,36.6,81.3,81.3C282.4,463.4,245.9,500,201.1,500z M363.8,284.5c-44.7,0-81.3-36.6-81.3-81.3c0-44.7,36.6-81.3,81.3-81.3c44.7,0,81.3,36.6,81.3,81.3C445.1,247.9,408.5,284.5,363.8,284.5z M632.2,284.5c-44.7,0-81.3-36.6-81.3-81.3c0-44.7,36.6-81.3,81.3-81.3s81.3,36.6,81.3,81.3C713.5,247.9,676.9,284.5,632.2,284.5z M794.8,500c-44.7,0-81.3-36.6-81.3-81.3c0-44.7,36.6-81.3,81.3-81.3c44.7,0,81.3,36.6,81.3,81.3C876.1,463.4,839.5,500,794.8,500z"/></g>
</svg>