<?xml version="1.0" encoding="utf-8"?>
<!-- Svg Vector Icons : http://www.onlinewebfonts.com/icon -->
<!DOCTYPE svg PUBLIC "-//W3C//DTD SVG 1.1//EN" "http://www.w3.org/Graphics/SVG/1.1/DTD/svg11.dtd">
<svg version="1.1" xmlns="http://www.w3.org/2000/svg" xmlns:xlink="http://www.w3.org/1999/xlink" x="0px" y="0px" viewBox="0 0 1000 1000" enable-background="new 0 0 1000 1000" xml:space="preserve">
<metadata> Svg Vector Icons : http://www.onlinewebfonts.com/icon </metadata>
<g><g><g><path fill="#636464" d="M500,10C229.4,10,10,229.4,10,500c0,270.7,219.4,490,490,490c270.7,0,490-219.3,490-490C990,229.4,770.7,10,500,10z M719.1,588.5l-196,196l-10.6,7.1c-7.9,3.4-16.9,3.4-24.9,0l-10.3-6.8l-0.3-0.3l-196-196c-12.7-12.7-12.7-33.5,0-46.2c12.7-12.7,33.5-12.7,46.2,0l140.1,140.2V173.3c0-18,14.6-32.7,32.7-32.7c18,0,32.7,14.6,32.7,32.7v509.1l140.2-140.2c12.7-12.7,33.5-12.7,46.2,0C731.9,555,731.9,575.7,719.1,588.5z"/></g></g><g></g><g></g><g></g><g></g><g></g><g></g><g></g><g></g><g></g><g></g><g></g><g></g><g></g><g></g><g></g></g>
</svg>
