<?xml version="1.0" encoding="utf-8"?>
<!-- Svg Vector Icons : http://www.onlinewebfonts.com/icon -->
<!DOCTYPE svg PUBLIC "-//W3C//DTD SVG 1.1//EN" "http://www.w3.org/Graphics/SVG/1.1/DTD/svg11.dtd">
<svg version="1.1" xmlns="http://www.w3.org/2000/svg" xmlns:xlink="http://www.w3.org/1999/xlink" x="0px" y="0px" viewBox="0 0 1000 1000" enable-background="new 0 0 1000 1000" xml:space="preserve">
<metadata> Svg Vector Icons : http://www.onlinewebfonts.com/icon </metadata>
<g><path fill='#FFF' d="M420.2,204.1c-44.7,0-82.2,37.5-82.2,82.2c0,44.7,37.5,82.2,82.2,82.2s82.2-37.5,82.2-82.2C502.5,241.5,465,204.1,420.2,204.1z M420.2,337.2c-66,0-65.2-101.7,0-101.7C485.4,235.4,486.3,337.2,420.2,337.2z"/><path fill='#FFF' d="M679,416.7c46.8,0,85.9-39.2,85.9-85.9c0-46.7-39.2-85.9-85.9-85.9c-46.8,0-85.9,39.2-85.9,85.9C593.1,377.5,632.3,416.7,679,416.7z M679,276.2c70.4,0,70.4,109.1,0,109.1S608.7,276.2,679,276.2z"/><path fill='#FFF' d="M792.7,471.3c-87.1,0-87.1,135.2,0,135.2C879.8,606.4,879.9,471.3,792.7,471.3z M792.7,575.1c-46.6,0-46.6-72.4,0-72.4C839.3,502.6,839.4,575.1,792.7,575.1z"/><path fill='#FFF' d="M674.9,646c-55.1,0-101.2,46.1-101.2,101.2c0,55.1,46.1,101.2,101.2,101.2c55.1,0,101.2-46.1,101.2-101.2C776.2,692.2,730,646,674.9,646z M674.9,817.1c-38,0-69.9-31.9-69.9-69.9c0-38,31.9-69.9,69.9-69.9c36.9,0,68.3,30.1,69.8,67C746.2,783.5,714.2,817.1,674.9,817.1z"/><path fill='#FFF' d="M499.9,48.7c-146.1,0-286.8,67.1-379.4,180.1C23.6,347.2-12.7,507.5,24.1,656.1C47.2,749.5,98,835.3,168.9,900.3l4.5,4.1h29.3c57.9,0,108.7-47.2,111-105.5c0.6-15-3.7-29-16-38.5c-9.2-7.1-28.2-4.9-33.9-13.6c-7.3-11,5-32.4,12.2-40.4c9.9-11,24.3-17.4,39.1-17.4h7.2c7.6,0,15.1,3.1,20.5,8.5L571,925.8c16,16,37.2,24.8,59.7,24.8l142,0.7l4-2.6c146.1-96.4,224.3-271.7,212-444.7c-11.1-157.1-100.2-302-234.6-383.9C677.8,73.5,589.2,48.7,499.9,48.7z M763.4,919.9l-132.6-0.7c-14.2,0-27.6-5.5-37.6-15.6L365.1,675.5c-11.4-11.4-26.6-17.7-42.7-17.7h-7.2c-29.6,0-57.6,16.1-72.6,41.7c-13.3,22.6-18.8,57,4.6,75.2c10.8,8.3,31.9,4.5,35.3,18.7c2.6,11.1-4.2,27.7-9.2,37.1c-13.7,26-41.3,42.7-70.6,42.7h-17C66.7,761.2,15.5,589.4,54,430.7c32.7-134.8,127.8-250,253.6-308.3c130.4-60.4,285.6-55.3,411.7,13.7C842,203.2,929.7,325.8,952.5,464C980.9,636.5,909.6,821.1,763.4,919.9z"/></g>
</svg>