<svg enable-background="new 0 0 512 512" fill="#f813f5" viewBox="0 0 512 512" xmlns="http://www.w3.org/2000/svg"><path d="m511.609 197.601c-.001-.77-.173-1.933-.472-2.603-.787-2.854-2.536-5.461-5.154-7.281l-73.292-50.948v-54.616c0-7.24-5.872-13.112-13.112-13.112h-84.319l-71.743-49.878c-4.484-3.121-10.437-3.134-14.935-.026l-72.206 49.904h-83.95c-7.242 0-13.112 5.872-13.112 13.112v53.973l-73.648 50.901c-3.623 2.504-5.583 6.507-5.645 10.6-.004.077-.021.15-.021.23l.391 284.235c.005 3.477 1.391 6.81 3.852 9.266 2.458 2.451 5.788 3.827 9.26 3.827h.018l485.385-.667c7.24-.01 13.104-5.889 13.094-13.13zm-78.919-28.893 41.898 29.118-41.898 29.128zm-176.675-122.824 33.31 23.156h-66.812zm-150.477 49.381h300.928v149.921l-101.036 70.242-41.194-31.954c-.064-.05-.119-.081-.181-.126-4.604-3.454-11.116-3.581-15.894.126l-41.493 32.185-101.13-69.893zm-26.224 72.738v59.64l-43.146-29.819zm-53.056 54.864 158.669 109.655-158.349 122.824zm25.617 246.042 204.324-158.484 203.591 157.923zm275.269-136.638 158.276-110.036.32 233.059z"/><path d="m344.77 147.713h-177.536c-7.24 0-13.112 5.872-13.112 13.112s5.872 13.112 13.112 13.112h177.536c7.242 0 13.112-5.872 13.112-13.112s-5.87-13.112-13.112-13.112z"/><path d="m344.77 215.895h-177.536c-7.24 0-13.112 5.872-13.112 13.112s5.872 13.112 13.112 13.112h177.536c7.242 0 13.112-5.872 13.112-13.112s-5.87-13.112-13.112-13.112z"/></svg>