<svg enable-background="new 0 0 1000 1000" fill="#f813f5" viewBox="0 0 1000 1000" xmlns="http://www.w3.org/2000/svg"><path d="m10 512.6c0 213.9 137.1 395.9 328.2 462.7 25.8 6.5 21.8-11.9 21.8-24.3v-84.9c-148.7 17.5-154.6-81-164.6-97.4-20.2-34.5-67.8-43.2-53.6-59.6 33.8-17.5 68.3 4.4 108.3 63.4 28.9 42.8 85.3 35.6 113.8 28.4 6.2-25.8 19.6-48.7 38-66.6-153.9-27.4-218.1-121.4-218.1-233.2 0-54.1 17.9-104 52.9-144.2-22.3-66.4 2.1-123 5.3-131.4 63.6-5.8 129.7 45.5 134.8 49.6 36.1-9.7 77.4-15 123.6-15 46.4 0 87.9 5.3 124.2 15.2 12.3-9.4 73.7-53.4 132.8-48 3.2 8.4 27 63.9 6 129.2 35.5 40.3 53.6 90.5 53.6 144.8 0 112-64.6 206.1-219 233.3 25.8 25.4 41.7 60.7 41.7 99.8v123.2c.9 9.8 0 19.6 16.5 19.6 194.2-65.3 333.8-248.6 333.8-464.5 0-270.7-219.4-490-490-490-270.7-.1-490 219.2-490 489.9z"/></svg>