<svg height="200pt" preserveAspectRatio="xMidYMid meet" fill="#539ef1" viewBox="0 0 200 200" width="200pt" xmlns="http://www.w3.org/2000/svg"><g transform="matrix(.1 0 0 -.1 0 200)"><path d="m290 1779c-20-11-47-37-60-56l-25-37-3-660c-2-364 0-676 3-694 7-37 55-96 96-118 41-21 1356-21 1397 0 36 19 78 65 91 99 7 17 11 132 11 298 0 256-1 270-20 289-27 27-93 27-120 0-19-19-20-33-20-244 0-237-6-280-43-290-29-8-1165-7-1194 0-15 4-26 18-34 43-16 56-8 1196 9 1213 10 10 77 14 263 18 233 5 252 6 265 24 21 29 18 92-6 116-19 19-33 20-297 20-262 0-280-2-313-21z"/><path d="m1260 1780c-13-13-20-33-20-60 0-69 20-80 152-80h113l-298-298c-278-278-299-301-304-340-5-36-2-45 26-73s37-31 73-26c39 5 62 26 340 304l298 298v-113c0-99 2-114 20-132 27-27 93-27 120 0 19 19 20 33 20 260s-1 241-20 260-33 20-260 20-241-1-260-20z"/></g></svg>